<svg xmlns="http://www.w3.org/2000/svg" viewBox="0 0 64 64" role="img" aria-label="spotDL Web Downloader icon">
  <defs>
    <linearGradient id="bg" x1="0%" y1="0%" x2="100%" y2="100%">
      <stop offset="0%" stop-color="#1ed760" />
      <stop offset="100%" stop-color="#0c8f3b" />
    </linearGradient>
  </defs>
  <rect width="64" height="64" rx="16" fill="url(#bg)" />
  <circle cx="32" cy="32" r="20" fill="#0f172a" opacity="0.18" />
  <path
    d="M22 23.5C22 21.567 23.567 20 25.5 20s3.5 1.567 3.5 3.5v16.25a6.25 6.25 0 1 1-3-5.363V27.5l14-3v11.25a6.25 6.25 0 1 1-3-5.363V21.5c0-1.63 1.106-3.052 2.687-3.454l5.5-1.4A2.75 2.75 0 0 1 48 19.311V35.75a6.25 6.25 0 1 1-3-5.363V22.84l-2 .51v12.4a6.25 6.25 0 1 1-3-5.363v-2.818l-11 2.357v9.824a6.25 6.25 0 1 1-7-6.209V23.5Z"
    fill="#ffffff"
  />
</svg>
